<svg xmlns="http://www.w3.org/2000/svg" width="737.178" height="348.485" viewBox="0 0 737.178 348.485"><defs><style>.a{fill:#c9c9c9;fill-rule:evenodd;}</style></defs><g transform="translate(28.443 349.2) rotate(-90)"><path class="a" d="M261.547,659.361c-4.879-2.908,1.518.426-3.03-2.322-2.6-1.259-1.215-.337.17.6s2.746,1.95.2.738c-1.463-.941-3.484-1.994-5.391-2.95L250.8,654.1q-1.034-.474-2.052-.982c2.376.955,1.312-.2.458-.767-2.022-.845-6.221-3.407-9.612-5.013,8.1,4.309-7.025-3.182.262.764a32.773,32.773,0,0,1-4.914-1.978c-2.429-1.111-5.207-2.324-6.736-3.173.325-.105,2.885,1.114,5.011,2.072,1.9.385-5.2-2.63-6.23-3.538-4.114-1.523-12.629-4.9-19.175-7.581-3.248-1.4-6.045-2.552-7.584-3.138s-1.844-.557-.172.55c2.633,1.45,5.064,2.289,8.023,3.615-8.173-3.988.149-.487.925-.348,3.484,1.661,9.724,3.995,8.186,3.717l-5.79-2.08,14.6,6.374,7.845,3.607,8.016,3.888q15.961,7.97,31.208,17.262c-2.774-1.709-5.535-3.443-8.369-5.052a27.328,27.328,0,0,1,3.38,1.667l4.85,2.8-3.745-3.054c2.382,1.519,4.736,2.85,4.409,2.92,3.084,1.571,1.83.607.18-.665,1.573.939,2.822,1.675,3.856,2.344l2.685,1.754q2.714,1.764,5.561,3.308c-9.943-7.075-8.823-5.322-20.569-12.845l-3.754-1.163ZM220.1,638.47l-6.767-2.771,4.324,1.986a9.708,9.708,0,0,1,2.442.785M173.679,616.7c2.166,1.348,4.01,2.52,5.753,3.541l5.033,2.84c1.634.969,3.375,1.825,5.279,2.892l3.045,1.693,3.537,1.877c5.241,2.134-1.992-1.878.348-1.143a39.231,39.231,0,0,0-4.913-2.181A37.887,37.887,0,0,1,186.67,624c-1.718-1.392-7.553-4.185-12.23-7.365.5.5.408.641-.762.062" transform="translate(9.483 35.367)"/><path class="a" d="M150.782,604.943c-1.662-1.61-3.188-3.36-4.7-4.959a44.745,44.745,0,0,1-3.876-4.719,8.98,8.98,0,0,1,1.54,1.558c.359.418.755.9,1.166,1.408l1.341,1.546a6.911,6.911,0,0,0-.923-1.36c-.406-.494-.859-1.074-1.4-1.71s-1.139-1.357-1.785-2.169q-.508-.638-1-1.292c-.338-.459-.643-.975-.974-1.5.2.386,1.173,1.906.276.833-1.753-2.556-2.958-4.134-3.777-5.373s-1.38-2.053-2-2.964a34.853,34.853,0,0,1-2.254-3.636l-1.709-3.119q-.567-1.02-1.038-2.089L128.5,572.87c-1.181-2.017-2.03-4.165-2.194-3.666q-.813-2.237-1.585-4.489c-.3-.985-.443-1.6-.628-2.255s-.38-1.375-.74-2.578c-.172-.6-.421-1.319-.66-2.232s-.514-2.008-.852-3.34c-.075.451.5,4.067.08,4.12-2.02-7.563-2.852-11.454-3.6-14.652a78.394,78.394,0,0,1-1.693-10.706c.193,1.105.457,2.405.826,5.074.387-1.365-1.4-8.24-1.725-13.784l.568.5-.246-2.061-.191-2.345-.405-5.23q-.108-2.745-.133-5.493v-2.66c.034-.866.088-1.707.146-2.508l.234,1.456q-.023-2.489-.047-4.979v-2.544l.09-2.566.2-5.169c.082-1.725.239-3.441.359-5.146.135-1.7.235-3.392.4-5.052l.5-4.878c.293-3.185.691-6.2,1.014-8.957.38-1.965.717-3.935,1.157-5.887,1.006-7.6.366-3.85-.4.407-.732,4.261-1.466,9.054-1.115,3.432a4.823,4.823,0,0,0,.631-2.02c.169-.944.3-2.148.455-3.575a101.614,101.614,0,0,1,1.569-10.877c1.038-4.014-1.239,8.773-.074,4.325-.167-1.985.618-4.628,1.232-9.236.3,1.067,1.517-9.636,1.6-6.7.509-5.453.96-10.913,1.266-16.377a86.5,86.5,0,0,0,1.177-10.847c-.767,8.825-.454-2.471-1.546,7.385-.626,7.19-1.767,16.765-3.308,26.74-1.614,9.956-3.351,20.374-4.534,29.33a36.425,36.425,0,0,1-.442,6.894,50.262,50.262,0,0,0-.426,7.57c-.234.4-.514,1.746-.749,2.169-.454,11.65.454-2.716.565.137-.189,5.092-.745,9.183-.958,8.707-.179,8.35.153.93.425,5.19-.256,1.812-.539,3.626-.707,5.449l.143,4.985c.027,1.694.207,3.412.3,5.158.175,3.5.619,7.076,1.013,10.738a169.2,169.2,0,0,0,4.44,22.394,131.2,131.2,0,0,0,8.271,21.971,129.752,129.752,0,0,0,11.775,19.662l-.954-2.092c.478.69.929,1.378,1.416,2.022l1.478,1.86c.983,1.2,1.907,2.387,2.88,3.475l2.92,3.117,1.424,1.5,1.476,1.41,2.9,2.806c.958.939,1.986,1.807,2.97,2.746,1,.918,1.969,1.9,3.006,2.852s2.1,1.928,3.164,2.968l1.67,1.15,1.72,1.08c-1.885-1.167,1.455,1.92-1.522.03,1.5,1.045,3,2.191,4.511,3.346s3.122,2.21,4.7,3.246c-1.785-1.348-3.629-2.612-5.338-4.055.494.318.987.647,1.476.982s.995.645,1.483.963q1.393.921,2.742,1.906c.84.609,1.577,1.2,2.2,1.674a16.082,16.082,0,0,1,1.4,1.143c4.348,2.505,3.183,1.544.739-.222l-2.008-1.436-2.043-1.573c-1.3-1.012-2.41-1.886-2.809-2.274-1.518-.89-2.735-1.83-3.863-2.614q-1.494-1.074-2.945-2.2c-1.677-1.414-2.941-2.632-4.191-3.832-1.272-1.174-2.4-2.48-3.9-3.965-.74-.757-1.6-1.534-2.521-2.47q-1.554-1.6-3.16-3.143c-5.854-5.9.265.958-.2.7" transform="translate(6.213 24.003)"/><path class="a" d="M165.183,624.336a20.514,20.514,0,0,0,1.671,1.2c-.6-.406-1.131-.822-1.671-1.2m-37.14-208.2.222-3.931c-.027-1.338-.084.794-.222,3.931m52,218.629s0,0-.023-.021l-.089-.051.112.072m6.255,2.671c-1.086-.616-2.119-1.319-3.173-1.984l.444.518c.9.5,1.8,1.013,2.728,1.466M127.145,376.547l-.229.008c.136.32.237.454.229-.008M71.461,285.983l1.507,1.781q-.721-.917-1.507-1.78" transform="translate(3.879 17.238)"/><path class="a" d="M68.466,93.667c6.019-3.546,14.245-7.885,18.74-10.459l-.352.423c3.274-1.768,14.144-7.181,6.877-4.254l-1.635.984c-7.855,4.123-5.981,2.438-12.256,5.4-7.4,3.911-11.2,6.978-17.7,10.521-2.779,1.667-2.452,1.234-1.726.582-6.425,3.778-8.483,5.966-12.661,8.878-1.315-.118-6.023,3.175-11.242,7.611-5.251,4.411-10.883,10-15,13.707-2.3,2.637-4.951,5.747-7.463,9.274a65.007,65.007,0,0,0-6.618,11.567c.43-1.107.411-1.194.146-.729a26.673,26.673,0,0,0-1.272,2.6c-1.047,2.218-1.967,4.873-1.873,3.864a8.87,8.87,0,0,1-.37,1.819c-.206.858-.524,1.928-.878,3.153a76.11,76.11,0,0,0-1.849,8.68c-1.006,6.242-.643,12.5.074,13.217.088,3.006.345,4.527.406,5.353a5.764,5.764,0,0,0,.173,1.11c.044.173.1.4.277,1.447.1.521.187,1.253.388,2.271.222,1.014.448,2.337.849,4.029a16.894,16.894,0,0,1-.907-3.159c.954,5.467,2.617,8.05,3.62,12.519l.624,1.752.54,1.329q.339.837.71,1.661c.333.73.42.793.466.723.105-.151-.021-.809,1.5,2.121,2.331,5.277,3.3,7.118,3.857,8.441s.765,2.1,2.15,5.006c.988.631,4.329,6.66,7.778,11.158-.809-1.156-4.956-7.833-1.965-3.632a96.3,96.3,0,0,0,6.948,9.718l7.171,8.739c1.713,2.69-.232.247-1.8-1.752-.794-.992-1.461-1.9-1.551-1.979a28.279,28.279,0,0,0,2,2.9c-5.163-6.044-8.628-10.977-11.42-14.237,2.966,4.449,6.514,9.207,10.28,13.936s7.858,9.352,11.721,13.715c4.116,5-2.373-2.319.865,1.6,7.264,9,12.038,13.076,17.817,20.268l-1.5-1.228c4,3.972,13.217,15.529,20.313,23.562-.75-1.166-1.234-1.921-.243-.916-.78.434,9.994,11.078,16.022,19.811-.043-.5,1.572,1.231,3.706,3.728,2.083,2.536,4.7,5.827,6.576,8.5,1.2,1.962.736,1.693.6,1.746a58.094,58.094,0,0,0-6.159-8.133c-1.532-1.724-3.04-3.113-5.708-6.365q1.91,2.283,3.749,4.624c1.333,1.707,2.685,3.556,4.047,5.366s2.618,3.657,3.837,5.307,2.253,3.206,3.191,4.415l-1.68-1.762c2.682,4.033,3.938,5.745,5.256,7.5a28.433,28.433,0,0,1,2.029,3.054,45.494,45.494,0,0,1,2.688,5.179l-.727-.759a109.257,109.257,0,0,1,6.231,14.486,111.759,111.759,0,0,1,3.91,15.559c1.762,10.43,1.958,20.534,2.045,28.714.109.716.378-.982.646-2.922s.4-4.121.517-4.339c-.042-1.228-.061-2.39-.129-3.5L132.852,404c-.092-1.013-.167-1.983-.269-2.921-.133-.935-.261-1.842-.385-2.73l-.374-2.616c-.123-.862-.319-1.709-.471-2.562-.343-1.706-.6-3.445-1.062-5.259l.505.015c-.166-.4-.413-1.255-.678-2.226l-.4-1.506c-.145-.5-.315-.989-.457-1.427-.58-1.751-.939-2.687-.451-.255-.871-2.911-1.05-4.053-1.359-5.28q-.243-1.092-.557-2.166-.233-.79-.494-1.572-.41-1.052-.857-2.089a7.084,7.084,0,0,1,1.4,2.259c.466,1.031.9,2.008,1.118,1.977-.361-.961-.677-1.936-1.072-2.88l-1.2-2.826c.875,1.748-1.139-3.495-.288-1.814-2.5-5.116-4.189-8.677-6.039-12.23-.937-1.767-1.828-3.58-3-5.492l-1.849-3.056c-.682-1.068-1.458-2.176-2.289-3.381l1.757,2.737c.583.915,1.116,1.864,1.677,2.792-.135.053-.684-.717-1.39-1.8q-1.208-1.794-2.45-3.565a31.66,31.66,0,0,0-2.236-3.9c-.906-1.346-1.969-3.019-3.7-5.467-3.254-4.016-5.4-5.984-9.739-11.444.677.41-1.078-1.893-3.062-4.461a61.557,61.557,0,0,1-4.493-5.995c-1.362-.812-8.818-10.208-9.7-10.734-2.491-2.771-5.765-6.679-5.525-6.843l1.892,2.069-2.394-2.831c.276.228.226.095.517.421-2.14-2.52-2.459-2.29-5.051-5.723a30.689,30.689,0,0,1,2.922,3.106c-5.682-6.771-10.693-11.2-15.093-17.1-1.142-.942-7.774-8.684-6.788-6.64-1.634-2.223-.595-1.716-5.471-7.344-3.132-2.958-5.245-6.439-8.99-10.672,2.524,2.785,2.574,2.75,2.527,2.648s-.165-.3,2.113,2.076c-3.07-4-8.306-9.441-13.28-16.685-.42-.809-.282-.864-.7-1.677-1-1.294-2.117-2.658-3.113-4.09a25.061,25.061,0,0,1-2.608-4.34l-.083.522c-3.031-5.134-7.141-12.412-9.356-18.426-.63-1.083-1.19-2.2-1.762-3.312l-.86-1.673-.8-1.7c-1.418-4.826-3.031-10.458-4.1-15.965a89.046,89.046,0,0,1-1.724-14.868c.14-3.72,1.163-9.177,1.369-9.113-.051.424-.15.992-.207,1.672l-.192,2.3c.2-1.334.4-2.745.738-4.131.161-.694.29-1.394.472-2.074l.545-2c.718-2.6,1.477-4.886,1.778-6.41,1.941-5.212,1.9-3.611,3.79-7.262a53.4,53.4,0,0,1,5.006-8.59,84.069,84.069,0,0,1,7.108-8.7c1.219-1.359,2.49-2.59,3.629-3.782l3.237-3.173q1.27-1.2,2.468-2.466a9.826,9.826,0,0,0,1.365-1.619l-1.457,1.243-1.685,1.5c-1.215,1.053-2.521,2.3-3.92,3.637a95.022,95.022,0,0,0-8.5,9.409c1.361-1.9.025-.622,2.085-3.181,1.454-1.671,2.74-3.136,4.033-4.406,1.255-1.308,2.488-2.446,3.716-3.586,1.213-1.158,2.507-2.227,3.84-3.452,1.382-1.167,2.816-2.482,4.515-3.9l-.331,1.23C40.7,111.706,46.413,107.316,52,103.4a101.351,101.351,0,0,1,16.465-9.736" transform="translate(0 5.865)"/><path class="a" d="M1.762,172.541l.06-1.593.141-1.588c.095-1.057.176-2.112.353-3.157l-.377.638c-.065.979-.039,1.969-.091,2.93s-.053,1.9-.088,2.769" transform="translate(0.057 10.672)"/><path class="a" d="M1.936,177.515c.1-1.293.083-2.551.211-3.709a35.589,35.589,0,0,0-.307,3.885l.1-.177Zm89.1-89.748q3.184-1.4,6.308-2.929c-1.7.667-5.064,2.23-6.308,2.929m6.655-3.34q-1.487.6-2.958,1.233l-.388.277q1.665-.771,3.346-1.511M262.276-2.128c1.237-1.185,2.363-2.484,3.534-3.732l3.483-3.773c.358-.281,1.141-1,2.048-1.912l2.816-3.005c1.817-1.942,3.179-3.362,2.044-1.849.923-1.225,2.273-2.668,3.539-4.255l3.757-4.471c2.259-2.631,3.476-4.326,1.633-2.643A266.945,266.945,0,0,1,248.937,8.541a299.323,299.323,0,0,1-45.313,30.945l4.715-3.006q-2.688,1.633-5.408,3.211c-1.726.9-3.337,1.7-4.863,2.458-3.057,1.484-5.729,2.826-8.365,3.979-2.653,1.116-5.194,2.2-7.876,3.449-1.344.618-2.715,1.3-4.167,2q-2.35,1.042-4.664,2.16l1.595-1.284c-3.9,1.388-7.508,3.044-11.224,4.6a113.588,113.588,0,0,1-11.727,4.174l.877-.045c-2.16.785-3.048,1-5.235,1.809l.905-.214c-5.591,2.352-9.1,3.648-14.746,5.659-.454-.036,2.583-1.095,4.3-1.819-2.64.8-6.888,2.9-11.217,4.636-3.466,1.188-.061-.286.376-.553-6.452,2.726-11.187,4.6-15.409,6.379A107.343,107.343,0,0,0,99.248,83.03c-.8.549,3.431-1.21-1.177.975,8.532-3.558,15.249-6.818,22.947-10.25l-2.161.88c5.845-3.359,4.758-1.757,14.607-6.052-2.516,1.361-6.842,3.1-8.5,3.97,11.748-3.941,16.3-6.957,24.287-8.977l-.84.342c1.743-.561,4.769-1.85,7.373-2.886-.907.208-3.528,1.1-5.306,1.66a27.375,27.375,0,0,0,4.683-2.411c3.122-.716,3.9-1.619,8.724-3.136,1.815-.253-3.857,1.745-5.567,2.569l5.631-2.287c5.194-1.987,5.26-1.572,7.9-2.36,4.307-1.952-2.639.793.769-.939.713-.211,1.709-.54,2.927-.964s2.672-.912,4.231-1.61q5.456-2.321,10.875-4.726c3.878-1.9,7.884-3.975,11.609-5.886.939-.461,1.819-.995,2.682-1.5s1.7-1,2.506-1.466l4.388-2.608c-3.607,2.089-1.086,1.067-5.53,3.493,1.635-.819,7.228-4.181,7.123-4.451l1.368-.825,1.377-.9,2.853-1.832q2.957-1.873,5.943-3.7c3.912-2.574,7.739-5.15,11.04-7.258l-2.033,1.058,4.381-3.4q2.664-2,5.369-3.95c1.966-1.365,3.919-3,6-4.683L252.9,6.3c1.074-.9,2.163-1.822,3.2-2.845l-.186.158c1.363-1.285,2.517-2.595,3.97-4.145.728-.774,1.53-1.609,2.473-2.531s1.956-2,3.2-3.167c-.556.793-1.492,1.832-2.226,2.672-.755.817-1.321,1.423-1.061,1.424M244.026,610.127l-4.64-4.636c-1.446-1.537-2.781-3.027-3.879-4.4a27.931,27.931,0,0,1,4.043,4.184,13.761,13.761,0,0,0-2.3-2.894c-.546-.588-1.162-1.242-1.818-1.99q-1.036-1.276-1.979-2.624c.217.359,1.235,1.756.306.785q-1.165-1.459-2.333-2.916l-1.551-2.049c-.872-1.129-1.48-1.86-2.139-2.691a89.237,89.237,0,0,1-6.677-10.468c-1.2-1.888-2.26-3.829-2.382-3.336q-.621-1.221-1.142-2.489l-.7-1.688L216,570.835c-.254-.6-.5-1.274-.918-2.4-.405-1.138-1.086-2.7-1.957-5.18-.091.462.889,3.818.462,3.922l-.966-2.464-.771-2.207-1.319-3.653q-.86-2.666-1.786-5.31c-.514-1.487-.883-2.845-1.332-4.391q-.355-1.257-.677-2.523l-.637-3.137.515,1.828.332,1.278c.133.481.285,1.023.456,1.647a5.761,5.761,0,0,0-.273-1.848c-.191-.871-.485-1.96-.825-3.169a73.978,73.978,0,0,1-1.9-7.961l.61.416-.432-1.943c-.129-.7-.267-1.442-.408-2.215-.28-1.551-.616-3.226-.879-4.952-.236-1.73-.464-3.5-.656-5.227-.21-1.72-.25-3.408-.308-4.947l.378,1.366-.534-4.741c-.114-1.613-.23-3.246-.344-4.888l-.156-2.471-.075-2.481-.135-4.942c-.02-6.549.134-12.869.374-18.193l.68-5.711c.44-7.335.075-3.707-.368.418-.346,4.129-.772,8.76-.823,3.363,1-1.557.228-7.607,1.378-15.941.73-3.907-.57,8.476.253,4.145-.316-1.889.268-4.469.532-8.922.387,1,.764-9.325,1.071-6.525q.132-7.878-.065-15.757a41.228,41.228,0,0,0,.275-4.917c.026-1.879.038-3.862-.054-5.545a19.09,19.09,0,0,1-.086,3.371c-.071.327-.16.069-.256-.158-.194-.455-.413-.777-.557,3.971.006,6.917-.35,16.158-1.127,25.8l-1.293,14.554c-.243,2.4-.366,4.778-.535,7.092l-.243,3.42c-.053,1.123-.108,2.228-.158,3.309a11.267,11.267,0,0,1,.181,2.591c-.019,1.175-.042,2.592-.063,4.036a43.931,43.931,0,0,0,.2,7.267c-.193.405-.335,1.711-.527,2.134.19,5.591.3,4.926.324,3.212.06-1.717.107-4.485.252-3.129.049,1.221.068,2.384.063,3.435s.027,1.987.007,2.759c-.028,1.543-.133,2.425-.258,2.207.179,4,.328,4.214.37,3.94.065-.275.137-1.04.485.979-.074,1.751-.169,3.508-.222,5.27a198.382,198.382,0,0,0,3.386,19.791A159.718,159.718,0,0,0,211.1,561.43a142.549,142.549,0,0,0,9.746,20.3,144.559,144.559,0,0,0,12.489,18.086l-1.021-1.948a103.174,103.174,0,0,0,11.551,12.461l2.852,2.616,1.408,1.326,1.45,1.3c.966.876,1.931,1.777,2.9,2.719s2.005,1.855,3.024,2.861c1.083.717,2.127,1.484,3.238,2.158-1.8-1.128,1.358,1.88-1.481.042,2.851,2.029,5.692,4.472,8.739,6.448-1.7-1.308-3.4-2.6-5.04-3.99,1.87,1.253,3.818,2.582,5.4,3.789q1.054.8,2.065,1.655a15.269,15.269,0,0,1,1.3,1.142c4.105,2.51,3.022,1.552.729-.213l-1.881-1.44-1.926-1.551c-1.231-1-2.273-1.859-2.648-2.24a79.8,79.8,0,0,1-6.466-4.715q-2.069-1.775-4.019-3.682c-2.328-2.387-4.578-4.727-9.293-9.114-5.712-5.58.28.91-.193.692m11.642,12.052q.782.6,1.589,1.167c-.551-.422-1.072-.806-1.589-1.167M204.714,424.655c-.028-1.005-.061-2.19-.1-3.776-.137-1.274-.018.766.1,3.776m-4.279-37.729-.226.027c.152.294.262.415.226-.027m-54.088-86.913,1.386,1.754q-.659-.9-1.386-1.754" transform="translate(0.062)"/><path class="a" d="M138.609,94.084c5.635-3.622,13.365-8.07,17.573-10.71l-.321.426c3.082-1.8,13.3-7.38,6.432-4.341l-1.529,1c-7.38,4.238-5.657,2.528-11.567,5.591-6.953,4.022-10.475,7.108-16.573,10.74-2.587,1.72-2.311,1.264-1.635.617-6.011,3.869-7.908,6.034-11.782,9.008-1.3-.114-5.653,3.27-10.49,7.712-2.437,2.2-4.932,4.729-7.331,7.116-2.362,2.429-4.61,4.737-6.525,6.582-4.266,5.144-9.69,12.428-12.944,20.363.823-2.123-.141-.358-1.051,1.813-.493,1.066-.948,2.239-1.274,3.025s-.549,1.171-.5.689a29.275,29.275,0,0,1-1.151,4.777c-.285,1.189-.7,2.5-.983,3.917l-.483,2.159L76.09,166.8c-1.055,5.966-.9,11.96-.214,12.676,0,2.885.169,4.351.209,5.143a6.456,6.456,0,0,0,.118,1.071c.038.167.084.389.217,1.4l.277,2.192.651,3.9a17.354,17.354,0,0,1-.749-3.062c.677,5.279,2.213,7.812,2.947,12.144.757,2.566,1.316,3.907,1.593,4.624s.373.777.424.71.065-.268.224-.084a15.193,15.193,0,0,1,1.131,2.177c2,5.158,2.848,6.963,3.316,8.258.486,1.289.626,2.057,1.828,4.9.948.633,3.874,6.56,7.015,11-.724-1.142-4.428-7.707-1.723-3.567a88.5,88.5,0,0,0,6.279,9.579l6.556,8.631c1.529,2.65-.243.236-1.674-1.737-.723-.981-1.333-1.871-1.416-1.951a26.615,26.615,0,0,0,1.807,2.859c-4.738-5.97-7.863-10.835-10.425-14.058,2.667,4.382,5.88,9.078,9.32,13.744,3.428,4.682,7.2,9.24,10.754,13.555,3.763,4.94-2.2-2.3.757,1.575,6.636,8.892,11.1,12.932,16.391,20.026l-1.41-1.218c3.715,3.929,12.152,15.323,18.734,23.217-.682-1.141-1.121-1.881-.194-.893-.783.412,9.266,10.9,14.862,19.392-.023-.487,1.5,1.2,3.506,3.622,1.964,2.459,4.427,5.65,6.208,8.219,1.133,1.894.68,1.637.543,1.691a56.51,56.51,0,0,0-5.827-7.856c-1.458-1.664-2.871-3.029-5.383-6.185,4.314,5.167,10.532,14.349,14.012,19.061l-1.622-1.681c2.559,3.879,3.8,5.5,5.078,7.167a28.364,28.364,0,0,1,2,2.894c.368.6.77,1.281,1.219,2.082s.951,1.719,1.464,2.827l-.725-.7c1.134,2.164,2.366,4.343,3.413,6.649.532,1.148,1.111,2.283,1.612,3.46s1,2.361,1.494,3.546A115.854,115.854,0,0,1,195.5,382.4l.49,1.831q.2.921.408,1.835l.8,3.628.643,3.581c.211,1.178.438,2.34.58,3.5.314,2.31.7,4.539.9,6.7.246,2.153.526,4.213.688,6.169.157.675.319-.974.382-2.848.041-1.871.053-3.977.134-4.192-.116-1.172-.3-2.276-.473-3.328l-.506-3.012c-.328-1.92-.778-3.658-1.139-5.336q-.144-.627-.283-1.245c-.112-.407-.222-.812-.333-1.215l-.658-2.409c-.405-1.616-.935-3.218-1.46-4.934l.5-.03a22.062,22.062,0,0,1-.8-2.078L194.3,376.28c-.661-1.639-1.065-2.511-.461-.207-.984-2.745-1.342-3.786-1.654-4.964q-.282-1.035-.636-2.048c-.3-.85-.8-1.909-1.511-3.424a7.193,7.193,0,0,1,1.474,2.084c.566.934.992,1.863,1.217,1.81q-.562-1.361-1.22-2.679l-1.273-2.65c.458.815.153-.008-.158-.842-.331-.823-.689-1.646-.2-.878-1.327-2.384-2.345-4.451-3.375-6.287l-1.407-2.687c-.447-.871-.926-1.7-1.377-2.542-.909-1.688-1.814-3.393-2.943-5.223l-1.788-2.916q-1.078-1.632-2.2-3.235c1.122,1.748,2.25,3.494,3.3,5.289-.135.055-.666-.678-1.351-1.707s-1.589-2.3-2.355-3.412a31.531,31.531,0,0,0-2.116-3.755c-.849-1.3-1.871-2.9-3.487-5.279-3.075-3.882-5.121-5.791-9.16-11.118.649.4-.981-1.846-2.823-4.351a57.177,57.177,0,0,1-4.143-5.868c-1.3-.8-8.171-10.024-9-10.55-2.313-2.725-5.322-6.58-5.078-6.734l1.752,2.039-2.2-2.788c.258.225.215.095.485.415-1.969-2.481-2.3-2.259-4.661-5.641a28.155,28.155,0,0,1,2.707,3.065c-5.225-6.673-9.9-11.065-13.9-16.884-1.071-.937-7.155-8.587-6.3-6.58-1.481-2.192-.493-1.679-4.965-7.245-2.911-2.932-4.791-6.359-8.24-10.541,2.323,2.754,2.384,2.715,2.34,2.618s-.143-.289,1.958,2.057c-2.8-3.944-7.63-9.332-12.114-16.466-.365-.8-.226-.845-.594-1.643-.911-1.275-1.928-2.624-2.829-4.035a22.87,22.87,0,0,1-2.313-4.266l-.113.5c-2.683-5.044-6.314-12.19-8.158-18.051-.566-1.061-1.036-2.16-1.554-3.244s-1-2.187-1.451-3.3c-1.134-4.69-2.439-10.152-3.268-15.467a94.841,94.841,0,0,1-1.226-14.307c.23-3.56,1.261-8.781,1.466-8.717-.148.8-.253,2.2-.421,3.81.219-1.276.416-2.631.759-3.956.157-.665.312-1.329.465-1.986l.54-1.913c.321-1.255.71-2.418,1-3.464.271-1.053.542-1.96.673-2.7q.274-.808.57-1.609c.179-.443.351-.8.5-1.109a12.535,12.535,0,0,1,.738-1.342,28.128,28.128,0,0,0,1.762-2.946c2.005-5,6.489-11.666,11.115-16.928,4.56-5.331,9.044-9.433,9.826-10.993L102,121.247q-1.839,1.786-3.618,3.633a90.746,90.746,0,0,0-7.81,9.317c1.2-1.894-.03-.623,1.882-3.125a79.8,79.8,0,0,1,7.138-7.938l1.726-1.708c.595-.563,1.2-1.138,1.831-1.736,1.237-1.218,2.633-2.455,4.159-3.931l-.236,1.228c5.616-4.585,10.939-8.984,16.13-12.96a94.244,94.244,0,0,1,15.411-9.943" transform="translate(4.091 5.867)"/><path class="a" d="M76.333,182.273l.1-1.526.177-1.519c.12-1.013.223-2.022.415-3.021l-.388.6-.308,5.463m.308-5.464c.116-1.237.139-2.441.262-3.553-.215,1.324-.29,2.613-.36,3.72l.1-.167Zm83.185-88.978c1.212-.6,3.6-1.745,5.944-3.025-1.6.711-4.786,2.292-5.944,3.025m6.258-3.438-2.793,1.281-.362.281c1.053-.519,2.095-1.055,3.154-1.561m156-86.864c2.286-2.361,4.494-4.8,6.738-7.19a21.623,21.623,0,0,0,1.967-1.83l2.732-2.855c1.762-1.844,3.082-3.192,1.985-1.747,3.681-4.573,12.324-13.942,8.668-10.828a283.092,283.092,0,0,1-34.9,34.676,323.172,323.172,0,0,1-43.026,30.337l4.462-2.977q-2.546,1.618-5.128,3.179-1.148.71-2.348,1.329L261,40.8c-2.89,1.508-5.454,2.788-7.915,4.034-2.51,1.148-4.926,2.243-7.464,3.509q-1.984.988-3.935,2.039c-1.36.747-2.843,1.421-4.388,2.252l1.481-1.3c-3.7,1.445-7.12,3.116-10.612,4.752a103.4,103.4,0,0,1-11.119,4.345l.843-.06c-2.048.817-2.9,1.039-4.967,1.883l.865-.228c-5.285,2.435-8.612,3.772-13.965,5.871-.441-.03,2.44-1.135,4.064-1.879-2.51.841-6.509,3-10.606,4.793-3.289,1.239-.073-.283.335-.555-6.095,2.82-10.578,4.757-14.567,6.6a98.021,98.021,0,0,0-11.53,6.119c-.746.559,3.256-1.255-1.091.987,8.064-3.681,14.389-7.036,21.656-10.577l-2.042.913c5.482-3.439,4.508-1.828,13.808-6.261-2.362,1.394-6.456,3.194-8.011,4.089,11.147-4.114,15.4-7.189,23.011-9.328l-.8.355c1.654-.59,4.517-1.912,6.978-2.991-.863.222-3.349,1.154-5.039,1.738a24.959,24.959,0,0,0,4.407-2.474c2.978-.765,3.7-1.661,8.268-3.27,1.736-.288-3.632,1.819-5.248,2.658l5.323-2.378c4.91-2.075,5-1.646,7.515-2.475,4.068-2-2.51.829.7-.942,2.758-.781,9.616-3.922,17.069-7.529q5.514-2.924,10.99-5.918c3.439-2.078,6.6-4.019,9.055-5.562-3.422,2.066-1.014,1.055-5.233,3.459,1.555-.812,6.852-4.141,6.74-4.409,3.322-2.276,7.142-4.759,10.928-7.18,3.681-2.571,7.388-4.994,10.483-7.117-.624.376-1.274.717-1.924,1.055,1.234-.978,2.579-2.152,4.146-3.33q2.544-1.935,5.13-3.816c.936-.665,1.858-1.406,2.807-2.17l2.92-2.363c1.971-1.646,4.093-3.309,6.078-5.272l-.178.151c1.308-1.23,2.412-2.489,3.806-3.977q1.158-1.241,2.371-2.429,1.5-1.559,3.073-3.038c-1.06,1.53-3.613,3.966-3.136,3.948m-35.9,104.054c4.852-3.8,11.538-8.561,15.178-11.331l-.25.43c1.351-.934,4.23-2.922,6.021-4.255,1.816-1.293,2.527-1.962-.523-.322l-1.3,1.073c-6.4,4.526-5.027,2.709-10.167,6.05q-2.061,1.451-4.048,3l-3.35,2.821q-1.6,1.369-3.251,2.679c-1.108.908-2.26,1.854-3.581,2.819-2.232,1.789-2.027,1.334-1.468.677a49.851,49.851,0,0,0-5.681,5.057l-4.275,4.288c-.62-.011-1.838.867-3.438,2.278-.4.353-.825.738-1.266,1.156l-1.325,1.387c-.91.981-1.894,2.044-2.922,3.154-1.046,1.089-2.017,2.332-3.034,3.546l-3.048,3.626q-1.372,1.794-2.817,3.531c-.925,1.1-1.841,2.1-2.613,3.049a86.8,86.8,0,0,0-10.5,19.573c.575-2.023-.118-.311-.932,1.691-.89,1.974-1.523,4.371-1.528,3.46a17.367,17.367,0,0,1-.965,4.414c-.3,1.082-.519,2.328-.829,3.618l-.457,1.983a18.16,18.16,0,0,0-.408,2.036c-.194,1.376-.385,2.746-.566,4.037l-.238,1.872q-.039.857-.051,1.714c-.037,2.148.042,3.686.344,4.037a27.1,27.1,0,0,0-.069,3.086l.023,1.648a7.486,7.486,0,0,0,.053.992c.1.308-.095.836.562,6.94a16.776,16.776,0,0,1-.513-2.856,38.167,38.167,0,0,0,.872,6,26.182,26.182,0,0,1,.926,5.359,24,24,0,0,0,.665,2.831c.2.7.341,1.192.451,1.529.218.674.3.738.349.678.112-.119.147-.726,1.078,2.031.166.614.293,1.187.454,1.7l.458,1.413.688,2.174c.369,1.2.575,1.946.723,2.563a39.272,39.272,0,0,0,1.239,4.652c.457.312,1.2,1.9,2.112,3.963q1.6,3.4,3.433,6.691c-.519-1.133-3.441-7.421-1.249-3.428,1.289,2.658,2.141,4.546,2.964,5.935q.98,1.692,2.025,3.344c.6.963,1.189,1.9,1.994,3.192s1.895,2.878,3.362,5.218c2.363,5.116-5.785-9.387-1.152-.835-.968-1.46-1.923-2.809-2.709-4.135l-2.2-3.717q-.949-1.6-1.941-3.174c-.611-.964-1.105-1.878-1.638-2.665.976,2.152,2.221,4.308,3.463,6.555l1.9,3.407c.646,1.144,1.386,2.249,2.086,3.386,1.436,2.25,2.828,4.561,4.336,6.764l4.467,6.505c3.053,4.831-1.858-2.268.545,1.519,5.314,8.728,9.223,12.694,13.51,19.621l-1.225-1.21c1.564,1.938,4.061,5.681,6.894,9.877s5.931,8.892,8.734,12.7c-.546-1.1-.9-1.807-.1-.848-.792.367,7.856,10.556,12.651,18.586.051-.931,5.389,6.4,8.647,11.128,1.01,1.757.568,1.536.439,1.585-4.994-7.957-5.56-7.217-9.974-13.2,1.886,2.458,4.163,5.865,6.415,9.17,1.129,1.651,2.244,3.279,3.268,4.774s1.957,2.853,2.773,3.929l-1.511-1.542a59.248,59.248,0,0,0,4.743,6.558,46.565,46.565,0,0,1,4.489,7.073l-.729-.6c2.422,3.8,4.578,7.984,6.863,12.139.586,1.031,1.1,2.1,1.607,3.178l1.537,3.214,1.534,3.2c.25.534.522,1.055.751,1.6l.668,1.624c.9,2.156,1.777,4.287,2.642,6.374l.653,1.554q.278.791.557,1.57.551,1.562,1.089,3.078l2.128,5.849c.58,1.908,1.153,3.729,1.718,5.447.573,1.155-.736-6.067-.717-6.482-1.532-4.061-2.765-7.25-4.01-10.15-1.373-2.851-2.648-5.46-4.021-8.458l.487-.114c-.4-.643-1.6-2.687-2.41-4.095s-1.315-2.144-.475-.119a28.021,28.021,0,0,1-2.036-4.368c-.2-.523-.4-1.076-.759-1.825-.382-.735-.911-1.671-1.719-2.985.691.206,2.553,3.382,2.909,3.267-.884-1.569-1.872-3.077-2.8-4.617,1,1.4-1.408-2.9-.435-1.558-2.629-4.253-4.459-7.194-6.183-10.264-.884-1.52-1.706-3.1-2.766-4.76q-1.784-2.853-3.693-5.625l3.04,4.853c-.266.116-2.025-2.648-3.441-4.679a36.31,36.31,0,0,0-1.861-3.5l-3.105-4.911c-2.733-3.639-4.562-5.456-8.062-10.512,1.191.771-5.555-8.572-5.833-9.771-1.193-.775-6.93-9.669-7.671-10.2-1.949-2.645-4.444-6.392-4.191-6.529l1.475,1.985-1.832-2.709c.227.221.2.1.426.409-1.638-2.411-1.981-2.214-3.9-5.488a23.874,23.874,0,0,1,2.288,2.988c-4.349-6.47-8.311-10.847-11.532-16.489-.96-.908-5.9-8.428-5.314-6.49-1.161-2.143-.268-1.614-3.932-7.067a34.99,34.99,0,0,1-3.232-4.7c-1.048-1.688-2.04-3.578-3.491-5.612,3.9,5.363.123-.039,3.584,4.614-1.107-1.94-2.626-4.242-4.4-6.883-.439-.665-.911-1.338-1.358-2.054l-1.325-2.236q-1.411-2.407-2.732-4.865c-.283-.752-.152-.786-.395-1.561-1.388-2.513-3.259-5.306-4.03-8.025l-.179.466q-.763-2-1.565-3.984l-.869-2.152c-.3-.727-.6-1.466-.834-2.231l-1.479-4.541c-.232-.747-.465-1.48-.671-2.2l-.462-2.141-1.188-3.093c-.395-1.035-.82-2.066-1.108-3.132q-.206-1.715-.475-3.422l-.293-1.776-.157-.9-.095-.917q-.2-1.855-.445-3.706c-.156-1.24-.373-2.478-.416-3.714l-.28-3.65-.155-1.766c-.028-.582-.018-1.153-.032-1.714l-.07-3.225c-.018-1.02-.1-1.987-.022-2.866.226-1.624.522-3.644.783-5.252a17.273,17.273,0,0,1,.476-1.976,2.419,2.419,0,0,1,.271-.767c-.055.373-.127.878-.211,1.474-.039.3-.1.615-.132.956l-.072,1.075a28.711,28.711,0,0,1,.752-3.632l.86-3.61a36.2,36.2,0,0,0,1.421-5.709,13.8,13.8,0,0,1,.905-2.529,11.158,11.158,0,0,1,.656-1.251,16.216,16.216,0,0,0,1.469-2.8,69.236,69.236,0,0,1,9.1-16.289l1.364-1.941,1.4-1.767c.9-1.142,1.73-2.209,2.446-3.168.694-.977,1.381-1.762,1.867-2.447a7.617,7.617,0,0,0,.97-1.6l-2.462,2.738-2.971,3.667-1.657,2.06-1.595,2.272-1.63,2.358q-.41.6-.82,1.2c-.257.411-.494.838-.739,1.257.931-1.845-.138-.61,1.469-3.02q1.469-2.189,3.011-4.328c1.015-1.234,1.954-2.38,2.894-3.523L254.4,129.9c.473-.588,1.016-1.136,1.54-1.738,1.065-1.192,2.191-2.485,3.446-3.985l-.056,1.192.87-.893.9-.852q.886-.864,1.762-1.713c1.167-1.135,2.254-2.318,3.4-3.421q1.7-1.624,3.369-3.278c1.095-1.093,2.175-2.172,3.3-3.167a81.636,81.636,0,0,1,13.243-10.459" transform="translate(4.146 0.049)"/><path class="a" d="M225.376,171.522l.31-2.8.543-2.764-.4.543c-.07.865-.219,1.728-.264,2.577q-.06,1.223-.194,2.441m.458-5.018c.115-1.14.2-2.243.269-3.274q-.24,1.706-.369,3.425l.1-.151Z" transform="translate(12.317 10.509)"/></g></svg>